<?xml version="1.0" standalone="no"?>
<!DOCTYPE svg PUBLIC "-//W3C//DTD SVG 20010904//EN"
 "http://www.w3.org/TR/2001/REC-SVG-20010904/DTD/svg10.dtd">
<svg version="1.0" xmlns="http://www.w3.org/2000/svg"
 width="1800.000000pt" height="1800.000000pt" viewBox="0 0 1800.000000 1800.000000"
 preserveAspectRatio="xMidYMid meet">
<g transform="translate(0.000000,1800.000000) scale(0.100000,-0.100000)"
fill="#000000" stroke="none">
<path d="M12375 13207 c-65 -32 -160 -118 -186 -170 -14 -27 -22 -65 -24 -112
-2 -40 -11 -89 -19 -110 -9 -21 -16 -47 -16 -58 0 -11 -9 -50 -19 -86 -15 -49
-21 -112 -26 -241 -4 -96 -10 -193 -15 -214 -5 -22 -7 -43 -5 -46 9 -15 -15
-380 -30 -460 -16 -85 -25 -163 -44 -400 -5 -69 -15 -138 -20 -154 -6 -15 -11
-49 -11 -75 0 -26 -5 -52 -11 -58 -8 -8 -8 -36 1 -101 7 -51 10 -128 7 -179
-3 -48 -9 -133 -13 -188 -4 -55 -7 -113 -7 -130 0 -16 -3 -73 -8 -125 -5 -52
-9 -113 -9 -135 -3 -165 -13 -296 -23 -292 -6 2 -23 32 -38 68 -70 168 -125
279 -163 329 -22 30 -55 78 -71 105 -98 162 -329 392 -520 518 -147 98 -295
162 -343 150 -15 -3 -30 1 -45 14 -67 60 -166 99 -182 73 -10 -16 -37 -12 -60
10 -12 11 -57 30 -101 42 -69 19 -105 21 -289 21 -161 0 -224 -4 -270 -16 -33
-9 -91 -21 -130 -27 -38 -5 -106 -23 -150 -40 -44 -16 -114 -40 -155 -53 -41
-14 -97 -34 -125 -45 -27 -12 -62 -24 -78 -27 -15 -3 -44 -22 -65 -41 -20 -20
-54 -45 -75 -55 -41 -22 -113 -71 -187 -129 -25 -19 -81 -53 -125 -75 -77 -39
-112 -68 -168 -139 -16 -20 -35 -36 -42 -36 -7 0 -29 -20 -49 -45 -24 -28 -49
-48 -72 -54 -19 -5 -53 -28 -76 -51 -23 -22 -53 -48 -67 -56 -14 -9 -44 -38
-66 -66 -22 -28 -96 -105 -165 -172 -69 -66 -154 -151 -190 -188 -36 -38 -71
-68 -78 -68 -17 0 -104 86 -129 127 -10 17 -48 62 -83 100 -36 37 -70 76 -75
85 -11 18 -313 336 -353 372 -13 12 -36 34 -50 51 -26 29 -52 55 -157 155 -57
54 -146 126 -231 187 -33 23 -72 55 -88 72 -17 17 -35 31 -41 31 -6 0 -26 13
-45 28 -73 59 -217 141 -272 155 -52 14 -60 13 -90 -2 -72 -38 -92 -159 -68
-409 6 -70 16 -199 20 -287 10 -194 24 -313 45 -380 8 -27 15 -67 15 -87 0
-43 -25 -67 -98 -94 -74 -28 -121 -61 -205 -146 -86 -86 -89 -87 -170 -46 -21
10 -75 32 -120 49 -73 26 -159 63 -211 91 -55 29 -392 118 -448 118 -46 0 -78
-14 -100 -45 -16 -21 -17 -34 -9 -112 6 -52 20 -113 35 -150 14 -35 26 -73 26
-85 0 -30 32 -140 59 -203 12 -27 27 -72 33 -100 6 -27 23 -77 38 -110 30 -65
60 -149 60 -167 0 -7 32 -77 71 -156 l71 -144 -6 -112 c-4 -61 -9 -219 -12
-351 -2 -132 -6 -250 -9 -262 -5 -21 -11 -23 -80 -23 -176 0 -269 -56 -204
-121 17 -17 28 -20 58 -14 20 4 56 11 81 15 25 5 69 6 98 3 66 -7 77 -23 87
-114 l6 -67 -48 -18 c-61 -23 -99 -48 -168 -112 -58 -54 -72 -96 -40 -122 21
-17 47 -5 122 57 70 57 117 83 152 83 13 0 41 -26 76 -70 132 -165 135 -167
472 -244 94 -21 408 -40 553 -32 142 7 243 37 445 131 150 69 187 85 200 85
24 0 35 -45 29 -109 -4 -34 -2 -80 5 -108 7 -28 14 -135 16 -239 4 -202 17
-361 33 -391 10 -20 24 -173 27 -298 1 -44 7 -90 13 -102 7 -13 12 -73 13
-150 0 -70 5 -171 10 -223 5 -52 16 -183 24 -290 26 -333 32 -383 54 -445 12
-33 25 -70 28 -82 7 -30 129 -164 169 -186 20 -11 57 -19 93 -20 88 -3 115 26
164 173 14 41 28 99 32 129 3 30 13 67 21 82 7 15 14 52 14 81 0 29 7 78 15
108 9 32 14 91 13 141 0 47 2 92 7 99 5 7 9 282 9 611 1 328 5 601 9 605 4 5
18 -3 30 -18 12 -14 29 -28 38 -31 12 -4 17 -26 22 -99 3 -51 13 -115 22 -143
8 -27 13 -62 10 -77 -4 -15 0 -37 7 -50 8 -14 16 -75 19 -153 13 -264 64 -828
87 -965 9 -53 48 -181 80 -265 18 -45 49 -85 68 -85 7 0 19 -9 27 -20 29 -41
129 -120 152 -120 65 0 198 182 211 290 3 30 12 68 20 84 8 17 17 48 20 70 3
23 9 50 14 61 5 11 12 36 15 55 15 79 47 861 43 1055 -4 251 -2 358 10 455 7
52 16 150 22 217 5 73 16 135 25 152 8 17 15 44 15 60 0 17 11 63 24 103 14
40 32 102 41 138 15 61 36 122 73 215 29 73 127 220 185 278 41 41 185 145
238 173 47 24 136 54 204 68 33 7 87 24 120 38 73 32 151 39 305 27 256 -20
276 -23 365 -68 95 -49 190 -121 222 -171 43 -66 107 -149 119 -154 12 -5 34
-97 54 -226 15 -98 48 -264 62 -315 7 -25 10 -151 9 -343 -1 -205 3 -310 10
-324 7 -14 12 -147 15 -392 2 -204 4 -387 5 -406 1 -19 1 -147 0 -285 l-3
-250 45 -129 c51 -144 74 -176 161 -220 72 -36 111 -41 179 -21 52 15 61 22
96 73 56 84 98 163 106 201 4 18 16 54 28 80 33 74 68 499 66 791 -2 124 2
182 14 233 10 38 17 86 17 107 0 46 11 56 34 31 18 -20 56 -182 56 -240 0 -18
4 -50 9 -70 37 -143 56 -314 64 -576 2 -60 8 -92 26 -128 18 -38 22 -59 18
-95 -5 -50 5 -131 28 -222 7 -30 19 -82 26 -115 21 -103 149 -278 227 -311 47
-19 64 -18 109 8 83 48 124 91 166 172 23 45 48 97 55 116 8 19 25 58 39 87
28 58 63 190 63 237 0 17 6 41 14 52 13 18 21 52 46 209 6 33 10 132 10 220
-1 88 4 187 9 220 24 141 32 283 24 420 -5 77 -5 187 -1 245 5 58 10 366 13
686 3 478 7 599 20 680 9 54 21 144 26 199 11 119 14 400 4 444 -4 18 -2 53 4
79 21 95 40 219 46 311 3 52 10 115 15 140 10 50 33 372 36 516 4 162 26 426
44 520 14 76 30 246 36 384 3 68 10 134 15 148 12 33 11 129 -2 176 -8 30 -6
57 11 135 16 71 21 126 20 207 -3 185 -2 307 6 640 7 338 8 627 1 760 -5 88
-24 158 -55 202 -11 15 -26 44 -34 63 -18 42 -92 120 -113 120 -9 0 -33 9 -54
20 -64 32 -109 34 -166 7z m-5511 -3728 c102 -19 170 -40 196 -64 14 -12 40
-32 58 -44 37 -26 71 -86 102 -184 12 -37 26 -69 30 -72 9 -6 21 -60 40 -185
21 -139 -16 -322 -84 -412 -101 -135 -129 -154 -279 -194 -69 -18 -122 -7
-177 36 -19 15 -47 30 -62 34 -15 3 -55 33 -89 66 -93 89 -136 208 -159 440
-14 136 -11 163 33 282 32 88 94 167 192 245 87 69 96 71 199 52z m-1153 -417
c25 -9 78 -42 116 -72 128 -101 200 -229 239 -424 13 -66 24 -132 24 -147 0
-15 5 -40 11 -56 6 -15 11 -62 10 -103 -1 -58 -5 -81 -21 -101 -10 -15 -22
-38 -25 -52 -9 -33 -96 -106 -148 -124 -72 -25 -199 -35 -243 -19 -55 19 -134
64 -166 93 -36 34 -81 144 -119 293 -26 100 -33 150 -35 250 -4 134 -5 129 62
275 35 77 131 191 167 198 48 9 84 6 128 -11z m2378 -328 c15 -19 18 -31 11
-43 -18 -36 -43 -44 -147 -53 -108 -10 -182 -32 -234 -69 -40 -28 -94 -25
-116 7 -15 24 -15 29 -2 53 16 28 114 85 163 95 17 3 54 12 81 20 28 8 89 15
137 15 82 1 88 0 107 -25z m-216 -392 c43 -5 84 -15 90 -21 6 -6 29 -11 52
-11 84 -1 168 -81 120 -116 -26 -20 -128 -18 -168 2 -51 27 -147 46 -222 43
-98 -3 -100 -2 -113 26 -22 49 -16 63 36 79 47 16 63 15 205 -2z"/>
<path d="M6765 9329 c-72 -38 -119 -85 -161 -161 -59 -104 -71 -165 -54 -276
20 -138 46 -215 91 -265 54 -62 123 -103 196 -117 84 -17 120 -3 175 63 24 28
59 68 79 89 19 20 41 54 47 75 20 67 31 176 22 223 -22 119 -30 158 -39 189
-15 50 -115 144 -185 175 -71 32 -118 33 -171 5z"/>
<path d="M5636 8874 c-93 -25 -169 -130 -201 -278 -21 -95 -16 -141 25 -251
29 -77 99 -193 139 -229 44 -40 197 -59 250 -32 38 20 85 75 119 139 25 49 27
59 27 182 0 92 -5 145 -16 180 -9 28 -20 63 -23 79 -9 38 -81 134 -112 148
-13 6 -26 19 -29 29 -7 22 -65 49 -102 48 -15 -1 -50 -8 -77 -15z"/>
</g>
</svg>
